<svg xmlns="http://www.w3.org/2000/svg" width="60" height="60" viewBox="0 0 60 60"><defs><style>.a{fill:#1877f2;}.b{fill:#fff;}</style></defs><g transform="translate(-1686 -4139)"><circle class="a" cx="30" cy="30" r="30" transform="translate(1686 4139)"/><g transform="translate(1709 4173.642) rotate(-90)"><path class="b" d="M7.2,0A1.308,1.308,0,0,0,6.193.432L.432,6.193a1.392,1.392,0,0,0,0,2.016,1.392,1.392,0,0,0,2.016,0L7.2,3.457,11.955,8.21a1.426,1.426,0,1,0,2.016-2.016L8.21.432A1.308,1.308,0,0,0,7.2,0Z" transform="translate(8.642 0) rotate(90)"/></g></g></svg>